<?xml version="1.0" encoding="UTF-8" standalone="no"?>
<!DOCTYPE svg PUBLIC "-//W3C//DTD SVG 1.1//EN" "http://www.w3.org/Graphics/SVG/1.1/DTD/svg11.dtd">
<svg width="100%" height="100%" viewBox="0 0 36 7" version="1.1" xmlns="http://www.w3.org/2000/svg" xmlns:xlink="http://www.w3.org/1999/xlink" xml:space="preserve" xmlns:serif="http://www.serif.com/" style="fill-rule:evenodd;clip-rule:evenodd;stroke-linejoin:round;stroke-miterlimit:2;">
    <g transform="matrix(0.18383,0,0,0.18383,-0.0416022,-0.0243484)">
        <path d="M13.932,7.956C17.196,7.956 19.596,8.616 21.132,9.936C22.692,11.256 23.472,12.984 23.472,15.12C23.472,15.84 23.376,16.644 23.184,17.532C22.728,19.5 21.876,21.228 20.628,22.716C19.38,24.18 17.844,25.32 16.02,26.136C14.22,26.928 12.264,27.324 10.152,27.324C6.816,27.324 4.344,26.664 2.736,25.344C1.152,24 0.36,22.224 0.36,20.016C0.36,19.272 0.456,18.444 0.648,17.532C1.104,15.66 1.968,14.004 3.24,12.564C4.536,11.1 6.108,9.972 7.956,9.18C9.828,8.364 11.82,7.956 13.932,7.956ZM13.824,11.16C13.32,11.16 12.78,11.616 12.204,12.528C11.652,13.416 10.992,15.108 10.224,17.604C9.456,20.1 9.072,21.852 9.072,22.86C9.072,23.388 9.156,23.748 9.324,23.94C9.492,24.108 9.72,24.192 10.008,24.192C10.512,24.24 11.028,23.808 11.556,22.896C12.108,21.984 12.792,20.208 13.608,17.568C14.352,15.24 14.724,13.548 14.724,12.492C14.724,11.988 14.64,11.64 14.472,11.448C14.328,11.256 14.112,11.16 13.824,11.16Z" style="fill:white;fill-rule:nonzero;"/>
    </g>
    <g transform="matrix(0.18383,0,0,0.18383,-0.0416022,-0.0243484)">
        <path d="M44.99,22.032C44.942,22.128 44.918,22.272 44.918,22.464C44.918,22.632 44.954,22.764 45.026,22.86C45.122,22.956 45.242,23.004 45.386,23.004C45.674,23.004 45.914,22.884 46.106,22.644C46.322,22.38 46.466,22.248 46.538,22.248C46.658,22.248 46.754,22.332 46.826,22.5C46.898,22.644 46.934,22.824 46.934,23.04C46.958,23.736 46.73,24.42 46.25,25.092C45.77,25.74 45.062,26.28 44.126,26.712C43.214,27.12 42.11,27.324 40.814,27.324C39.23,27.324 37.97,26.964 37.034,26.244C36.098,25.5 35.618,24.516 35.594,23.292C35.594,22.404 35.81,21.408 36.242,20.304L38.222,15.12C38.342,14.808 38.402,14.556 38.402,14.364C38.402,14.052 38.294,13.812 38.078,13.644C37.886,13.452 37.646,13.356 37.358,13.356C36.902,13.356 36.434,13.572 35.954,14.004C35.498,14.412 35.126,15.084 34.838,16.02L34.838,15.948L32.57,23.256C32.498,23.544 32.462,23.796 32.462,24.012C32.462,24.324 32.522,24.576 32.642,24.768C32.762,24.936 32.93,25.104 33.146,25.272C33.314,25.44 33.434,25.584 33.506,25.704C33.578,25.8 33.59,25.932 33.542,26.1C33.422,26.412 33.182,26.64 32.822,26.784C32.462,26.928 31.91,27 31.166,27L22.958,27C22.334,27 21.878,26.904 21.59,26.712C21.302,26.496 21.206,26.22 21.302,25.884C21.398,25.596 21.65,25.344 22.058,25.128C22.418,24.936 22.718,24.708 22.958,24.444C23.198,24.18 23.402,23.76 23.57,23.184L29.042,5.22C29.114,5.004 29.15,4.824 29.15,4.68C29.15,4.416 29.078,4.2 28.934,4.032C28.814,3.864 28.646,3.696 28.43,3.528C28.19,3.336 28.01,3.168 27.89,3.024C27.794,2.88 27.782,2.688 27.854,2.448C27.998,1.896 28.754,1.416 30.122,1.008C31.49,0.6 32.918,0.396 34.406,0.396C35.798,0.396 36.818,0.66 37.466,1.188C38.138,1.716 38.474,2.436 38.474,3.348C38.474,3.876 38.39,4.392 38.222,4.896L36.278,11.232C37.214,10.008 38.198,9.156 39.23,8.676C40.286,8.196 41.426,7.956 42.65,7.956C44.114,7.956 45.29,8.4 46.178,9.288C47.09,10.176 47.546,11.328 47.546,12.744C47.546,13.488 47.426,14.22 47.186,14.94L44.99,22.032Z" style="fill:white;fill-rule:nonzero;"/>
    </g>
    <g transform="matrix(0.18383,0,0,0.18383,-0.0416022,-0.0243484)">
        <path d="M82.717,22.032C82.669,22.128 82.644,22.272 82.644,22.464C82.644,22.632 82.681,22.764 82.753,22.86C82.849,22.956 82.969,23.004 83.113,23.004C83.4,23.004 83.641,22.884 83.833,22.644C84.049,22.38 84.193,22.248 84.265,22.248C84.385,22.248 84.481,22.332 84.553,22.5C84.625,22.644 84.661,22.824 84.661,23.04C84.685,23.736 84.457,24.42 83.977,25.092C83.497,25.74 82.789,26.28 81.853,26.712C80.941,27.12 79.837,27.324 78.541,27.324C76.957,27.324 75.697,26.964 74.76,26.244C73.825,25.5 73.345,24.516 73.321,23.292C73.321,22.404 73.537,21.408 73.969,20.304L75.949,15.12C76.069,14.808 76.129,14.556 76.129,14.364C76.129,14.052 76.021,13.812 75.805,13.644C75.613,13.452 75.373,13.356 75.085,13.356C74.677,13.356 74.257,13.536 73.825,13.896C73.393,14.256 73.009,14.82 72.673,15.588L70.693,22.032C70.644,22.128 70.621,22.272 70.621,22.464C70.621,22.632 70.656,22.764 70.729,22.86C70.825,22.956 70.945,23.004 71.089,23.004C71.376,23.004 71.617,22.884 71.809,22.644C72.025,22.38 72.169,22.248 72.241,22.248C72.361,22.248 72.457,22.332 72.528,22.5C72.601,22.644 72.637,22.824 72.637,23.04C72.661,23.736 72.433,24.42 71.953,25.092C71.473,25.74 70.765,26.28 69.829,26.712C68.917,27.12 67.813,27.324 66.516,27.324C64.933,27.324 63.673,26.964 62.737,26.244C61.801,25.5 61.321,24.516 61.297,23.292C61.297,22.404 61.513,21.408 61.945,20.304L63.925,15.12C64.045,14.808 64.105,14.556 64.105,14.364C64.105,14.052 63.996,13.812 63.781,13.644C63.589,13.452 63.349,13.356 63.06,13.356C62.653,13.356 62.233,13.536 61.801,13.896C61.368,14.232 61.009,14.784 60.721,15.552L58.344,23.256C58.249,23.52 58.201,23.772 58.201,24.012C58.201,24.3 58.261,24.54 58.381,24.732C58.501,24.9 58.669,25.08 58.885,25.272C59.053,25.416 59.173,25.548 59.245,25.668C59.317,25.788 59.329,25.932 59.281,26.1C59.185,26.412 58.957,26.64 58.597,26.784C58.237,26.928 57.673,27 56.905,27L48.697,27C48.073,27 47.629,26.904 47.365,26.712C47.077,26.496 46.969,26.22 47.041,25.884C47.137,25.596 47.389,25.344 47.797,25.128C48.157,24.936 48.457,24.708 48.697,24.444C48.937,24.18 49.141,23.76 49.309,23.184L52.513,12.78C52.561,12.66 52.585,12.492 52.585,12.276C52.585,12.012 52.525,11.808 52.405,11.664C52.309,11.52 52.141,11.34 51.901,11.124C51.661,10.932 51.493,10.764 51.397,10.62C51.301,10.476 51.289,10.284 51.361,10.044C51.505,9.492 52.261,9.012 53.629,8.604C54.996,8.172 56.425,7.956 57.913,7.956C59.089,7.956 60.013,8.28 60.685,8.928C61.381,9.576 61.717,10.464 61.693,11.592C62.676,10.224 63.709,9.276 64.789,8.748C65.893,8.22 67.081,7.956 68.353,7.956C69.745,7.956 70.873,8.364 71.737,9.18C72.625,9.972 73.117,11.016 73.213,12.312C74.245,10.68 75.349,9.552 76.525,8.928C77.701,8.28 78.985,7.956 80.376,7.956C81.841,7.956 83.016,8.4 83.905,9.288C84.817,10.176 85.272,11.328 85.272,12.744C85.272,13.488 85.153,14.22 84.912,14.94L82.717,22.032Z" style="fill:white;fill-rule:nonzero;"/>
    </g>
    <g transform="matrix(0.18383,0,0,0.18383,-0.0416022,-0.0243484)">
        <path d="M104.932,7.956C105.988,7.956 106.828,8.388 107.452,9.252C108.1,10.092 108.424,11.244 108.424,12.708C108.424,13.98 108.196,15.348 107.74,16.812C106.852,19.764 105.424,22.548 103.456,25.164C101.512,27.78 99.268,29.88 96.724,31.464C94.204,33.048 91.684,33.84 89.164,33.84C87.916,33.84 86.836,33.624 85.924,33.192C85.036,32.76 84.364,32.184 83.908,31.464C83.428,30.744 83.188,29.976 83.188,29.16C83.188,28.8 83.248,28.404 83.368,27.972C83.584,27.3 83.944,26.784 84.448,26.424C84.952,26.064 85.552,25.884 86.248,25.884C87.352,25.884 88.251,26.256 88.948,27C89.668,27.768 90.124,28.812 90.316,30.132C91.852,30.06 93.268,29.4 94.564,28.152C93.34,27.936 92.428,27.528 91.828,26.928C91.251,26.304 90.856,25.344 90.64,24.048L89.2,15.228C89.128,14.772 89.019,14.46 88.876,14.292C88.756,14.1 88.588,14.004 88.372,14.004C88.204,14.004 88,14.088 87.76,14.256C87.543,14.424 87.388,14.508 87.292,14.508C87.1,14.508 87.004,14.304 87.004,13.896C87.004,13.56 87.064,13.2 87.184,12.816C87.616,11.448 88.42,10.296 89.596,9.36C90.772,8.4 92.14,7.92 93.7,7.92C95.236,7.92 96.364,8.376 97.084,9.288C97.828,10.2 98.308,11.604 98.524,13.5L99.604,21.42C99.676,22.02 99.891,22.32 100.252,22.32C100.684,22.32 101.188,21.936 101.764,21.168C102.34,20.376 102.904,19.26 103.456,17.82C102.736,17.172 102.184,16.428 101.8,15.588C101.416,14.748 101.224,13.848 101.224,12.888C101.224,12.144 101.32,11.472 101.512,10.872C101.8,9.912 102.244,9.192 102.844,8.712C103.468,8.208 104.164,7.956 104.932,7.956Z" style="fill:white;fill-rule:nonzero;"/>
    </g>
    <g transform="matrix(0.18383,0,0,0.18383,-0.0416022,-0.0243484)">
        <path d="M122.864,0.396C125.432,0.396 127.352,0.792 128.624,1.584C129.92,2.352 130.568,3.3 130.568,4.428C130.568,5.34 130.184,6.048 129.416,6.552C128.672,7.032 127.688,7.272 126.464,7.272C125.336,7.272 124.46,6.996 123.836,6.444C123.212,5.892 122.9,5.208 122.9,4.392C122.9,3.888 123.056,3.36 123.368,2.808C122.648,2.808 122.048,2.988 121.568,3.348C121.088,3.684 120.716,4.272 120.452,5.112C120.308,5.64 120.236,6.132 120.236,6.588C120.236,7.164 120.332,7.62 120.524,7.956C120.74,8.268 121.04,8.424 121.424,8.424L123.548,8.424C124.796,8.424 125.42,8.808 125.42,9.576C125.42,9.672 125.396,9.816 125.348,10.008C125.204,10.536 124.904,10.932 124.448,11.196C124.016,11.46 123.356,11.592 122.468,11.592L121.388,11.592L117.824,23.256C117.752,23.544 117.716,23.796 117.716,24.012C117.716,24.324 117.776,24.576 117.896,24.768C118.016,24.936 118.184,25.104 118.4,25.272C118.568,25.44 118.688,25.584 118.76,25.704C118.832,25.8 118.844,25.932 118.796,26.1C118.676,26.412 118.436,26.64 118.076,26.784C117.716,26.928 117.164,27 116.42,27L108.212,27C107.588,27 107.132,26.904 106.844,26.712C106.556,26.496 106.46,26.22 106.556,25.884C106.652,25.596 106.904,25.344 107.312,25.128C107.672,24.936 107.972,24.708 108.212,24.444C108.452,24.18 108.656,23.76 108.824,23.184L111.632,13.968C111.752,13.608 111.812,13.236 111.812,12.852C111.812,12.372 111.704,12 111.488,11.736C111.296,11.448 110.996,11.136 110.588,10.8C110.324,10.584 110.12,10.404 109.976,10.26C109.856,10.092 109.796,9.9 109.796,9.684C109.772,9.228 109.928,8.904 110.264,8.712C110.624,8.52 111.296,8.424 112.28,8.424L113.18,8.424C113.012,7.824 112.928,7.224 112.928,6.624C112.928,6.024 113.036,5.4 113.252,4.752C113.708,3.528 114.68,2.496 116.168,1.656C117.68,0.816 119.912,0.396 122.864,0.396Z" style="fill:white;fill-rule:nonzero;"/>
    </g>
    <g transform="matrix(0.18383,0,0,0.18383,-0.0416022,-0.0243484)">
        <path d="M137.084,7.956C140.348,7.956 142.748,8.616 144.284,9.936C145.844,11.256 146.624,12.984 146.624,15.12C146.624,15.84 146.528,16.644 146.336,17.532C145.88,19.5 145.028,21.228 143.78,22.716C142.532,24.18 140.996,25.32 139.172,26.136C137.372,26.928 135.416,27.324 133.304,27.324C129.968,27.324 127.496,26.664 125.888,25.344C124.304,24 123.512,22.224 123.512,20.016C123.512,19.272 123.608,18.444 123.8,17.532C124.256,15.66 125.12,14.004 126.392,12.564C127.688,11.1 129.26,9.972 131.108,9.18C132.98,8.364 134.972,7.956 137.084,7.956ZM136.976,11.16C136.472,11.16 135.932,11.616 135.356,12.528C134.804,13.416 134.144,15.108 133.376,17.604C132.608,20.1 132.224,21.852 132.224,22.86C132.224,23.388 132.308,23.748 132.476,23.94C132.644,24.108 132.872,24.192 133.16,24.192C133.664,24.24 134.18,23.808 134.708,22.896C135.26,21.984 135.944,20.208 136.76,17.568C137.504,15.24 137.876,13.548 137.876,12.492C137.876,11.988 137.792,11.64 137.624,11.448C137.48,11.256 137.264,11.16 136.976,11.16Z" style="fill:white;fill-rule:nonzero;"/>
    </g>
    <g transform="matrix(0.18383,0,0,0.18383,-0.0416022,-0.0243484)">
        <path d="M160.709,7.956C163.973,7.956 166.373,8.616 167.909,9.936C169.469,11.256 170.249,12.984 170.249,15.12C170.249,15.84 170.153,16.644 169.961,17.532C169.505,19.5 168.653,21.228 167.405,22.716C166.157,24.18 164.621,25.32 162.797,26.136C160.997,26.928 159.041,27.324 156.929,27.324C153.593,27.324 151.121,26.664 149.513,25.344C147.929,24 147.137,22.224 147.137,20.016C147.137,19.272 147.233,18.444 147.425,17.532C147.881,15.66 148.745,14.004 150.017,12.564C151.313,11.1 152.885,9.972 154.733,9.18C156.605,8.364 158.597,7.956 160.709,7.956ZM160.601,11.16C160.097,11.16 159.557,11.616 158.981,12.528C158.429,13.416 157.769,15.108 157.001,17.604C156.233,20.1 155.849,21.852 155.849,22.86C155.849,23.388 155.933,23.748 156.101,23.94C156.269,24.108 156.497,24.192 156.785,24.192C157.289,24.24 157.805,23.808 158.333,22.896C158.885,21.984 159.569,20.208 160.385,17.568C161.129,15.24 161.501,13.548 161.501,12.492C161.501,11.988 161.417,11.64 161.249,11.448C161.105,11.256 160.889,11.16 160.601,11.16Z" style="fill:white;fill-rule:nonzero;"/>
    </g>
    <g transform="matrix(0.18383,0,0,0.18383,-0.0416022,-0.0243484)">
        <path d="M190.526,21.816C190.478,22.008 190.454,22.14 190.454,22.212C190.454,22.38 190.502,22.512 190.598,22.608C190.694,22.704 190.814,22.752 190.958,22.752C191.246,22.752 191.486,22.632 191.678,22.392C191.894,22.128 192.038,21.996 192.11,21.996C192.23,21.996 192.326,22.08 192.398,22.248C192.47,22.416 192.506,22.608 192.506,22.824C192.53,23.472 192.278,24.132 191.75,24.804C191.246,25.476 190.562,26.028 189.698,26.46C188.834,26.892 187.898,27.108 186.89,27.108C185.69,27.108 184.646,26.88 183.758,26.424C182.87,25.968 182.258,25.368 181.922,24.624C181.274,25.464 180.53,26.088 179.69,26.496C178.85,26.904 177.962,27.108 177.026,27.108C175.922,27.108 174.89,26.832 173.93,26.28C172.994,25.728 172.238,24.948 171.662,23.94C171.11,22.908 170.834,21.744 170.834,20.448C170.834,18.264 171.242,16.212 172.058,14.292C172.898,12.348 174.062,10.788 175.55,9.612C177.038,8.412 178.73,7.812 180.626,7.812C181.658,7.812 182.534,7.932 183.254,8.172C183.998,8.412 184.67,8.772 185.27,9.252L186.494,5.22C186.566,5.004 186.602,4.824 186.602,4.68C186.602,4.416 186.53,4.2 186.386,4.032C186.266,3.864 186.098,3.696 185.882,3.528C185.642,3.336 185.462,3.168 185.342,3.024C185.246,2.88 185.234,2.688 185.306,2.448C185.45,1.896 186.206,1.416 187.574,1.008C188.942,0.6 190.37,0.396 191.858,0.396C193.25,0.396 194.27,0.66 194.918,1.188C195.59,1.716 195.926,2.436 195.926,3.348C195.926,3.876 195.842,4.392 195.674,4.896L190.526,21.816ZM184.514,11.7C184.13,11.364 183.71,11.196 183.254,11.196C182.558,11.196 181.874,11.712 181.202,12.744C180.53,13.776 179.99,15.024 179.582,16.488C179.174,17.952 178.982,19.272 179.006,20.448C179.006,21.768 179.438,22.428 180.302,22.428C180.614,22.428 180.878,22.308 181.094,22.068C181.31,21.804 181.514,21.384 181.706,20.808L184.514,11.7Z" style="fill:white;fill-rule:nonzero;"/>
    </g>
</svg>
